name rise30.3154peak39.0474fall46.5389.mot
datacolumns 19
datarows 18
range 4.02998500000000 4.05832500000000
endheader
time	ground_force1_vx	ground_force1_vy	ground_force1_vz	ground_force1_px	ground_force1_py	ground_force1_pz	ground_force2_vx	ground_force2_vy	ground_force2_vz	ground_force2_px	ground_force2_py	ground_force2_pz	ground_torque1_x	ground_torque1_y	ground_torque1_z	ground_torque2_x	ground_torque2_y	ground_torque2_z	
4.02998500000000	9.12316400000000	696.23245599999996	43.12762200000000	0.20784400000000	0.00000000000000	0.12107800000000	0.00000000000000	0.00000000000000	0.00000000000000	0.00000000000000	0.00000000000000	0.00000000000000	0.00000000000000	15.42539200000000	0.00000000000000	0.00000000000000	0.00000000000000	0.00000000000000	
4.03165700000000	8.67096400000000	696.67921899999999	43.11523000000000	0.20691200000000	0.00000000000000	0.12104900000000	0.00000000000000	0.00000000000000	0.00000000000000	0.00000000000000	0.00000000000000	0.00000000000000	0.00000000000000	15.46970000000000	0.00000000000000	0.00000000000000	0.00000000000000	0.00000000000000	
4.03334400000000	8.20567900000000	697.15283899999997	43.10680600000000	0.20596300000000	0.00000000000000	0.12102100000000	0.00000000000000	0.00000000000000	0.00000000000000	0.00000000000000	0.00000000000000	0.00000000000000	0.00000000000000	15.51945400000000	0.00000000000000	0.00000000000000	0.00000000000000	0.00000000000000	
4.03498600000000	7.72693300000000	697.65395999999998	43.10231400000000	0.20500000000000	0.00000000000000	0.12099500000000	0.00000000000000	0.00000000000000	0.00000000000000	0.00000000000000	0.00000000000000	0.00000000000000	0.00000000000000	15.57467600000000	0.00000000000000	0.00000000000000	0.00000000000000	0.00000000000000	
4.03665700000000	7.23438600000000	698.18332199999998	43.10173300000000	0.20402000000000	0.00000000000000	0.12097000000000	0.00000000000000	0.00000000000000	0.00000000000000	0.00000000000000	0.00000000000000	0.00000000000000	0.00000000000000	15.63538800000000	0.00000000000000	0.00000000000000	0.00000000000000	0.00000000000000	
4.03831800000000	6.72773500000000	698.74175300000002	43.10504300000000	0.20302400000000	0.00000000000000	0.12094600000000	0.00000000000000	0.00000000000000	0.00000000000000	0.00000000000000	0.00000000000000	0.00000000000000	0.00000000000000	15.70160200000000	0.00000000000000	0.00000000000000	0.00000000000000	0.00000000000000	
4.03999200000000	6.20671600000000	699.33016999999995	43.11223900000000	0.20201200000000	0.00000000000000	0.12092300000000	0.00000000000000	0.00000000000000	0.00000000000000	0.00000000000000	0.00000000000000	0.00000000000000	0.00000000000000	15.77333100000000	0.00000000000000	0.00000000000000	0.00000000000000	0.00000000000000	
4.04165500000000	5.67110500000000	699.94956900000000	43.12331900000000	0.20098500000000	0.00000000000000	0.12090200000000	0.00000000000000	0.00000000000000	0.00000000000000	0.00000000000000	0.00000000000000	0.00000000000000	0.00000000000000	15.85057900000000	0.00000000000000	0.00000000000000	0.00000000000000	0.00000000000000	
4.04332000000000	5.12071600000000	700.60102300000005	43.13828900000000	0.19994100000000	0.00000000000000	0.12088200000000	0.00000000000000	0.00000000000000	0.00000000000000	0.00000000000000	0.00000000000000	0.00000000000000	0.00000000000000	15.93334300000000	0.00000000000000	0.00000000000000	0.00000000000000	0.00000000000000	
4.04498400000000	4.55540700000000	701.28567499999997	43.15716400000000	0.19888200000000	0.00000000000000	0.12086300000000	0.00000000000000	0.00000000000000	0.00000000000000	0.00000000000000	0.00000000000000	0.00000000000000	0.00000000000000	16.02161800000000	0.00000000000000	0.00000000000000	0.00000000000000	0.00000000000000	
4.04665500000000	3.97507300000000	702.00473000000000	43.17996400000000	0.19780700000000	0.00000000000000	0.12084600000000	0.00000000000000	0.00000000000000	0.00000000000000	0.00000000000000	0.00000000000000	0.00000000000000	0.00000000000000	16.11538700000000	0.00000000000000	0.00000000000000	0.00000000000000	0.00000000000000	
4.04832500000000	3.37965400000000	702.75945100000001	43.20671400000000	0.19671800000000	0.00000000000000	0.12082900000000	0.00000000000000	0.00000000000000	0.00000000000000	0.00000000000000	0.00000000000000	0.00000000000000	0.00000000000000	16.21463000000000	0.00000000000000	0.00000000000000	0.00000000000000	0.00000000000000	
4.04998500000000	2.76912900000000	703.55114600000002	43.23744700000000	0.19561500000000	0.00000000000000	0.12081400000000	0.00000000000000	0.00000000000000	0.00000000000000	0.00000000000000	0.00000000000000	0.00000000000000	0.00000000000000	16.31931600000000	0.00000000000000	0.00000000000000	0.00000000000000	0.00000000000000	
4.05165700000000	2.14351800000000	704.38116200000002	43.27219900000000	0.19449900000000	0.00000000000000	0.12080000000000	0.00000000000000	0.00000000000000	0.00000000000000	0.00000000000000	0.00000000000000	0.00000000000000	0.00000000000000	16.42940900000000	0.00000000000000	0.00000000000000	0.00000000000000	0.00000000000000	
4.05331800000000	1.50288200000000	705.25087900000005	43.31101200000000	0.19336900000000	0.00000000000000	0.12078700000000	0.00000000000000	0.00000000000000	0.00000000000000	0.00000000000000	0.00000000000000	0.00000000000000	0.00000000000000	16.54486200000000	0.00000000000000	0.00000000000000	0.00000000000000	0.00000000000000	
4.05498600000000	0.84732500000000	706.16169600000001	43.35393100000000	0.19222800000000	0.00000000000000	0.12077500000000	0.00000000000000	0.00000000000000	0.00000000000000	0.00000000000000	0.00000000000000	0.00000000000000	0.00000000000000	16.66562100000000	0.00000000000000	0.00000000000000	0.00000000000000	0.00000000000000	
4.05665200000000	0.17698900000000	707.11502199999995	43.40100600000000	0.19107600000000	0.00000000000000	0.12076400000000	0.00000000000000	0.00000000000000	0.00000000000000	0.00000000000000	0.00000000000000	0.00000000000000	0.00000000000000	16.79162200000000	0.00000000000000	0.00000000000000	0.00000000000000	0.00000000000000	
4.05832500000000	-0.50794500000000	708.11226899999997	43.45228800000000	0.18991300000000	0.00000000000000	0.12075300000000	0.00000000000000	0.00000000000000	0.00000000000000	0.00000000000000	0.00000000000000	0.00000000000000	0.00000000000000	16.92279300000000	0.00000000000000	0.00000000000000	0.00000000000000	0.00000000000000	
